# xmcd
#
# Track frame offsets: 
#        150
#        10363
#        20300
#        31884
#        44240
#        55907
#        65877
#        79554
#        90779
#        104415
#        114272
#        124981
#        138855
#        150185
#        160418
#        170033
#        180264
#        191018
#        204071
#        214896
#        226204
#        238722
#        249161
#        260125
#        270589
#        281614
#        293768
#        305923
#        316687
#        325909
#
# Disc length: 4467 seconds
#
# Revision: 0
# Processed by: cddbd v1.5.2PL0 Copyright (c) Steve Scherf et al.
# Submitted via: ExactAudioCopy v1.3
#
DISCID=9e11711e
DTITLE=Guitar Slim - You're Gonna Miss Me: The Complete Singles Collec
DTITLE=tion A's and B's (1951-1958)
DYEAR=2017
DGENRE=Blues
TTITLE0=Bad Luck Is on Me (Woman Troubles)
TTITLE1=Cryin' in the Morning
TTITLE2=New Arrival
TTITLE3=Standin' at the Station
TTITLE4=Feelin' Sad
TTITLE5=Certainly All
TTITLE6=The Things That I Used to Do
TTITLE7=Well, I Done Got Over It
TTITLE8=The Story of My Life
TTITLE9=A Letter to My Girlfriend
TTITLE10=Later for You Baby
TTITLE11=Trouble Don't Last
TTITLE12=Sufferin' Mind
TTITLE13=Twenty-Five Lies
TTITLE14=Our Only Child
TTITLE15=Stand by Me
TTITLE16=I Got Sumpin' for You
TTITLE17=You're Gonna Miss Me
TTITLE18=Quicksand
TTITLE19=Think It Over
TTITLE20=Sum'thin' to Remember You By
TTITLE21=You Give Me Nothin' but the Blues
TTITLE22=Down Through the Years
TTITLE23=Oh Yeah
TTITLE24=If I Should Lose You
TTITLE25=It Hurts to Love Someone (That Don't Love You)
TTITLE26=I Won't Mind at All
TTITLE27=Hello, How Ya' Been, Goodbye
TTITLE28=When There's No Way Out
TTITLE29=If I Had My Life to Live Over
EXTD=
EXTT0=
EXTT1=
EXTT2=
EXTT3=
EXTT4=
EXTT5=
EXTT6=
EXTT7=
EXTT8=
EXTT9=
EXTT10=
EXTT11=
EXTT12=
EXTT13=
EXTT14=
EXTT15=
EXTT16=
EXTT17=
EXTT18=
EXTT19=
EXTT20=
EXTT21=
EXTT22=
EXTT23=
EXTT24=
EXTT25=
EXTT26=
EXTT27=
EXTT28=
EXTT29=
PLAYORDER=
